<?xml version="1.0" encoding="UTF-8"?>
<svg xmlns="http://www.w3.org/2000/svg" viewBox="0 0 320 260" width="320" height="260" role="img" aria-label="Al-Ameen — National Intelligence Platform">
  <defs>
    <linearGradient id="s-shield" x1="0" y1="0" x2="0" y2="1"><stop offset="0%" stop-color="#0A2540"/><stop offset="100%" stop-color="#051428"/></linearGradient>
    <linearGradient id="s-accent" x1="0" y1="0" x2="0" y2="1"><stop offset="0%" stop-color="#D6B47E"/><stop offset="100%" stop-color="#B88A3C"/></linearGradient>
  </defs>
  <g transform="translate(100,10)">
    <path d="M60 6 L104 18 L104 62 C104 86 86 104 60 114 C34 104 16 86 16 62 L16 18 Z" fill="url(#s-shield)" stroke="url(#s-accent)" stroke-width="2"/>
    <path d="M60 14 L96 24 L96 60 C96 80 82 96 60 104 C38 96 24 80 24 60 L24 24 Z" fill="none" stroke="#C94A5E" stroke-width="1.5" opacity="0.75"/>
    <circle cx="60" cy="36" r="12" fill="#D6B47E"/>
    <circle cx="60" cy="36" r="7" fill="#051428"/>
    <circle cx="60" cy="36" r="3" fill="#D6B47E"/>
    <rect x="57.25" y="50" width="5.5" height="40" rx="2.5" fill="#F8F5F0"/>
    <rect x="34" y="90" width="52" height="3" rx="1.5" fill="#C94A5E"/>
    <rect x="42" y="94" width="36" height="1.5" rx="0.75" fill="#B88A3C" opacity="0.85"/>
  </g>
  <text x="160" y="172" text-anchor="middle" font-family="'Cormorant Garamond', serif" font-size="42" font-weight="500" fill="#051428">Al-Ameen</text>
  <text x="160" y="204" text-anchor="middle" font-family="'Cairo', sans-serif" font-size="26" font-weight="500" fill="#8A1F3C" direction="rtl">الأمين</text>
  <line x1="80" y1="224" x2="240" y2="224" stroke="#B88A3C" stroke-width="1" opacity="0.5"/>
  <text x="160" y="244" text-anchor="middle" font-family="'Inter', system-ui, sans-serif" font-size="10" font-weight="600" fill="#5C6D83" letter-spacing="3">NATIONAL INTELLIGENCE PLATFORM</text>
</svg>